<svg xmlns="http://www.w3.org/2000/svg" viewBox="0 0 1600 900" role="img" aria-labelledby="title desc">
  <title id="title">Centro de ayuda comunitaria</title>
  <desc id="desc">Voluntarios organizando agua, alimentos y refugio para personas afectadas.</desc>
  <defs>
    <linearGradient id="bg" x1="0" x2="1" y1="0" y2="1">
      <stop offset="0%" stop-color="#fef3c7"/>
      <stop offset="54%" stop-color="#dbeafe"/>
      <stop offset="100%" stop-color="#94a3b8"/>
    </linearGradient>
    <linearGradient id="shade" x1="0" x2="1">
      <stop offset="0%" stop-color="#101828" stop-opacity=".66"/>
      <stop offset="60%" stop-color="#101828" stop-opacity=".05"/>
      <stop offset="100%" stop-color="#101828" stop-opacity=".22"/>
    </linearGradient>
    <filter id="grain">
      <feTurbulence type="fractalNoise" baseFrequency=".7" numOctaves="3"/>
      <feColorMatrix type="saturate" values="0"/>
      <feComponentTransfer><feFuncA type="table" tableValues="0 .07"/></feComponentTransfer>
    </filter>
  </defs>
  <rect width="1600" height="900" fill="url(#bg)"/>
  <path d="M0 650h1600v250H0z" fill="#7c6f64"/>
  <path d="M1030 340h410l80 310H945z" fill="#334155"/>
  <path d="M1012 340l205-150 223 150z" fill="#1d4ed8"/>
  <path d="M520 610h500v154H520z" fill="#c88b4a"/>
  <path d="M560 640h115v88H560zM710 640h115v88H710zM860 640h115v88H860z" fill="#fef3c7" opacity=".72"/>
  <g transform="translate(740 430)">
    <circle cx="50" cy="42" r="30" fill="#7c4a31"/>
    <path d="M18 82h72l20 160H0z" fill="#f97316"/>
    <path d="M0 112h108v38H0z" fill="#fde68a" opacity=".9"/>
    <rect x="82" y="112" width="120" height="84" rx="11" fill="#a16207"/>
    <path d="M98 140h88" stroke="#fef3c7" stroke-width="10" stroke-linecap="round"/>
  </g>
  <g transform="translate(1060 455)">
    <circle cx="52" cy="42" r="30" fill="#5a3826"/>
    <path d="M20 82h70l18 160H0z" fill="#2563eb"/>
    <path d="M6 118h96v36H6z" fill="#93c5fd" opacity=".82"/>
  </g>
  <g transform="translate(1240 465)">
    <circle cx="46" cy="38" r="28" fill="#6b3f2a"/>
    <path d="M14 76h66l18 150H0z" fill="#16a34a"/>
    <rect x="-58" y="102" width="112" height="72" rx="9" fill="#d97706"/>
  </g>
  <path d="M90 710c160-62 300-62 520-18 185 37 393 28 680-62 120-38 220-43 310-26v296H0V748c28-15 57-28 90-38z" fill="#475467" opacity=".22"/>
  <rect width="1600" height="900" fill="url(#shade)"/>
  <rect width="1600" height="900" filter="url(#grain)" opacity=".35"/>
</svg>
