<svg xmlns="http://www.w3.org/2000/svg" viewBox="0 0 1600 900" role="img" aria-labelledby="title desc">
  <title id="title">Información verificada y recursos</title>
  <desc id="desc">Mesa con guía de emergencia, radio, teléfono y suministros para información confiable.</desc>
  <defs>
    <linearGradient id="bg" x1="0" x2="1" y1="0" y2="1">
      <stop offset="0%" stop-color="#f8fafc"/>
      <stop offset="48%" stop-color="#dbeafe"/>
      <stop offset="100%" stop-color="#475569"/>
    </linearGradient>
    <linearGradient id="shade" x1="0" x2="1">
      <stop offset="0%" stop-color="#101828" stop-opacity=".66"/>
      <stop offset="58%" stop-color="#101828" stop-opacity=".04"/>
      <stop offset="100%" stop-color="#101828" stop-opacity=".24"/>
    </linearGradient>
    <filter id="grain">
      <feTurbulence type="fractalNoise" baseFrequency=".8" numOctaves="3"/>
      <feColorMatrix type="saturate" values="0"/>
      <feComponentTransfer><feFuncA type="table" tableValues="0 .07"/></feComponentTransfer>
    </filter>
  </defs>
  <rect width="1600" height="900" fill="url(#bg)"/>
  <path d="M0 610h1600v290H0z" fill="#8b6f5d"/>
  <rect x="805" y="245" width="365" height="245" rx="24" fill="#111827"/>
  <rect x="835" y="285" width="305" height="168" rx="10" fill="#dbeafe"/>
  <path d="M870 325h160M870 360h225M870 395h190" stroke="#2563eb" stroke-width="16" stroke-linecap="round"/>
  <rect x="1180" y="315" width="150" height="260" rx="28" fill="#111827"/>
  <rect x="1200" y="350" width="110" height="175" rx="12" fill="#e0f2fe"/>
  <path d="M1222 385h66M1222 420h52M1222 455h76" stroke="#2563eb" stroke-width="10" stroke-linecap="round"/>
  <rect x="660" y="560" width="280" height="190" rx="18" fill="#f8fafc"/>
  <path d="M705 610h178M705 650h150M705 690h196" stroke="#94a3b8" stroke-width="14" stroke-linecap="round"/>
  <rect x="1000" y="585" width="175" height="118" rx="18" fill="#1f2937"/>
  <circle cx="1038" cy="644" r="24" fill="#60a5fa"/>
  <path d="M1082 625h64M1082 660h42" stroke="#cbd5e1" stroke-width="12" stroke-linecap="round"/>
  <g transform="translate(1295 570)">
    <rect width="70" height="160" rx="18" fill="#f97316"/>
    <rect x="85" y="24" width="70" height="136" rx="18" fill="#f59e0b"/>
    <rect x="170" y="48" width="70" height="112" rx="18" fill="#22c55e"/>
  </g>
  <path d="M0 720c200-60 350-52 545-14 275 55 522 45 805-30 92-24 175-32 250-24v248H0z" fill="#475467" opacity=".2"/>
  <rect width="1600" height="900" fill="url(#shade)"/>
  <rect width="1600" height="900" filter="url(#grain)" opacity=".35"/>
</svg>
